<?xml version="1.0" standalone="no"?>
<!DOCTYPE svg PUBLIC "-//W3C//DTD SVG 20010904//EN"
 "http://www.w3.org/TR/2001/REC-SVG-20010904/DTD/svg10.dtd">
<svg version="1.0" xmlns="http://www.w3.org/2000/svg"
 width="601.000000pt" height="601.000000pt" viewBox="0 0 601.000000 601.000000"
 preserveAspectRatio="xMidYMid meet">

<g transform="translate(0.000000,601.000000) scale(0.100000,-0.100000)"
fill="#000000" stroke="none">
<path d="M3741 4259 c-195 -33 -440 -255 -571 -517 -64 -129 -85 -211 -84
-332 0 -121 12 -157 74 -224 63 -69 142 -99 270 -104 182 -8 310 29 455 129
85 58 285 246 285 267 0 15 -36 52 -50 52 -6 0 -52 -39 -103 -86 -206 -194
-379 -283 -525 -271 -113 9 -158 66 -156 197 4 177 172 524 346 715 87 94 136
116 173 75 16 -18 17 -25 6 -60 -6 -22 -28 -56 -47 -75 -43 -44 -39 -67 17
-89 52 -21 111 -20 138 2 32 26 49 119 33 178 -31 116 -124 166 -261 143z"/>
<path d="M1836 3905 l-129 -10 -24 -35 c-47 -70 -134 -251 -167 -352 -45 -134
-63 -225 -78 -379 -22 -243 25 -531 123 -747 l28 -63 98 99 c146 147 402 309
628 396 327 126 581 70 681 -149 24 -51 28 -77 32 -170 5 -137 -10 -200 -82
-350 -80 -163 -207 -325 -340 -434 -119 -96 -198 -107 -273 -38 -23 21 -46 16
-25 -5 17 -17 15 -55 -4 -66 -12 -6 11 -19 88 -50 222 -88 396 -122 626 -122
399 0 785 154 1073 428 103 97 233 258 225 278 -3 7 -21 64 -41 127 l-35 114
-118 80 c-64 44 -200 136 -302 205 -102 69 -234 159 -295 200 -60 41 -182 123
-270 183 -267 181 -466 316 -545 370 -41 28 -145 98 -230 155 -85 57 -157 106
-160 109 -6 7 -329 224 -344 231 -6 3 -69 1 -140 -5z"/>
<path d="M2645 2735 c-137 -30 -385 -140 -592 -263 -139 -82 -212 -137 -310
-234 l-72 -71 52 -76 c93 -137 317 -348 458 -430 l35 -21 -17 68 c-26 98 -25
304 1 433 52 256 130 417 211 434 41 9 65 -2 79 -36 19 -45 6 -106 -51 -247
-59 -145 -103 -278 -119 -360 -6 -31 -14 -65 -16 -74 -4 -14 1 -18 19 -18 30
0 51 -23 44 -49 -7 -27 30 -35 63 -14 49 32 238 229 299 311 124 170 180 294
188 422 5 74 3 91 -15 127 -29 56 -72 89 -132 102 -59 13 -48 13 -125 -4z"/>
</g>
</svg>
